<?xml version="1.0" encoding="utf-8"?>
<!-- Generator: Adobe Illustrator 18.0.0, SVG Export Plug-In . SVG Version: 6.00 Build 0)  -->
<!DOCTYPE svg PUBLIC "-//W3C//DTD SVG 1.1//EN" "http://www.w3.org/Graphics/SVG/1.1/DTD/svg11.dtd">
<svg version="1.1" id="Layer_1" xmlns="http://www.w3.org/2000/svg" xmlns:xlink="http://www.w3.org/1999/xlink" x="0px" y="0px"
	 viewBox="0 0 20.3 14" enable-background="new 0 0 20.3 14" xml:space="preserve">
<g>
	<g>
		<path fill="#CCCCCC" d="M8.5,7c0-0.2,0.1-0.4,0.3-0.6l4.4-4.4c0.2-0.2,0.4-0.3,0.6-0.3c0.2,0,0.4,0.1,0.6,0.3L15,2.4
			c0.2,0.2,0.3,0.4,0.3,0.6S15.2,3.5,15,3.7l-2,2h4.8c0.2,0,0.4,0.1,0.6,0.3c0.1,0.2,0.2,0.4,0.2,0.6v0.9c0,0.2-0.1,0.4-0.2,0.6
			c-0.1,0.2-0.3,0.3-0.6,0.3H13l2,2c0.2,0.2,0.3,0.4,0.3,0.6c0,0.2-0.1,0.5-0.3,0.6L14.5,12c-0.2,0.2-0.4,0.3-0.6,0.3
			c-0.2,0-0.4-0.1-0.6-0.3L8.8,7.6C8.6,7.4,8.5,7.2,8.5,7z"/>
	</g>
	<rect x="2.4" y="1.8" fill="#CCCCCC" width="2.3" height="10.5"/>
</g>
</svg>
